<mxfile host="65bd71144e">
    <diagram id="7wUo8pGbPNGNPc805EKL" name="Page-1">
        <mxGraphModel dx="453" dy="392" grid="1" gridSize="10" guides="1" tooltips="1" connect="1" arrows="1" fold="1" page="1" pageScale="1" pageWidth="1100" pageHeight="850" background="light-dark(#FFFFFF,#474747)" math="0" shadow="1">
            <root>
                <mxCell id="0"/>
                <mxCell id="1" parent="0"/>
                <mxCell id="11" style="edgeStyle=none;html=1;entryX=0;entryY=0.5;entryDx=0;entryDy=0;" parent="1" source="2" target="7" edge="1">
                    <mxGeometry relative="1" as="geometry"/>
                </mxCell>
                <mxCell id="13" style="edgeStyle=none;html=1;entryX=0;entryY=0.5;entryDx=0;entryDy=0;" parent="1" source="2" target="6" edge="1">
                    <mxGeometry relative="1" as="geometry"/>
                </mxCell>
                <mxCell id="14" style="edgeStyle=none;html=1;entryX=0;entryY=0.5;entryDx=0;entryDy=0;" parent="1" source="2" target="5" edge="1">
                    <mxGeometry relative="1" as="geometry"/>
                </mxCell>
                <mxCell id="15" style="edgeStyle=none;html=1;entryX=0;entryY=0.5;entryDx=0;entryDy=0;" parent="1" source="2" target="4" edge="1">
                    <mxGeometry relative="1" as="geometry"/>
                </mxCell>
                <object label="&lt;b&gt;&lt;font face=&quot;Garamond&quot;&gt;Tab&lt;/font&gt;&lt;/b&gt;" Client="Client&#xa;" id="2">
                    <mxCell style="whiteSpace=wrap;html=1;sketch=1;curveFitting=1;jiggle=2;rounded=1;" parent="1" vertex="1">
                        <mxGeometry x="200" y="690" width="90" height="45" as="geometry"/>
                    </mxCell>
                </object>
                <mxCell id="19" style="edgeStyle=none;html=1;entryX=0;entryY=0.5;entryDx=0;entryDy=0;" parent="1" source="4" target="16" edge="1">
                    <mxGeometry relative="1" as="geometry"/>
                </mxCell>
                <object label="Home" Client="Client&#xa;" id="4">
                    <mxCell style="whiteSpace=wrap;html=1;sketch=1;curveFitting=1;jiggle=2;rounded=1;" parent="1" vertex="1">
                        <mxGeometry x="370" y="490" width="160" height="60" as="geometry"/>
                    </mxCell>
                </object>
                <mxCell id="24" style="edgeStyle=none;html=1;" parent="1" source="5" target="23" edge="1">
                    <mxGeometry relative="1" as="geometry"/>
                </mxCell>
                <object label="Search" Client="Client&#xa;" id="5">
                    <mxCell style="whiteSpace=wrap;html=1;sketch=1;curveFitting=1;jiggle=2;rounded=1;" parent="1" vertex="1">
                        <mxGeometry x="380" y="610" width="160" height="60" as="geometry"/>
                    </mxCell>
                </object>
                <mxCell id="26" value="" style="edgeStyle=none;html=1;" parent="1" source="6" target="25" edge="1">
                    <mxGeometry relative="1" as="geometry"/>
                </mxCell>
                <object label="Add Item" Client="Client&#xa;" id="6">
                    <mxCell style="whiteSpace=wrap;html=1;sketch=1;curveFitting=1;jiggle=2;rounded=1;" parent="1" vertex="1">
                        <mxGeometry x="380" y="735" width="160" height="60" as="geometry"/>
                    </mxCell>
                </object>
                <mxCell id="28" value="" style="edgeStyle=none;html=1;" parent="1" source="7" target="27" edge="1">
                    <mxGeometry relative="1" as="geometry"/>
                </mxCell>
                <mxCell id="30" value="" style="edgeStyle=none;html=1;" parent="1" source="7" target="29" edge="1">
                    <mxGeometry relative="1" as="geometry"/>
                </mxCell>
                <object label="Profile" Client="Client&#xa;" id="7">
                    <mxCell style="whiteSpace=wrap;html=1;sketch=1;curveFitting=1;jiggle=2;rounded=1;" parent="1" vertex="1">
                        <mxGeometry x="380" y="880" width="160" height="60" as="geometry"/>
                    </mxCell>
                </object>
                <object label="Hero" Client="Client&#xa;" id="16">
                    <mxCell style="whiteSpace=wrap;html=1;sketch=1;curveFitting=1;jiggle=2;rounded=1;" parent="1" vertex="1">
                        <mxGeometry x="650" y="390" width="90" height="50" as="geometry"/>
                    </mxCell>
                </object>
                <mxCell id="63" style="edgeStyle=none;html=1;" edge="1" parent="1" source="17" target="62">
                    <mxGeometry relative="1" as="geometry"/>
                </mxCell>
                <mxCell id="17" value="Body" style="whiteSpace=wrap;html=1;" parent="1" vertex="1">
                    <mxGeometry x="655" y="470" width="80" height="40" as="geometry"/>
                </mxCell>
                <mxCell id="18" style="edgeStyle=none;html=1;exitX=1;exitY=0.5;exitDx=0;exitDy=0;entryX=0.022;entryY=0.642;entryDx=0;entryDy=0;entryPerimeter=0;" parent="1" source="4" target="17" edge="1">
                    <mxGeometry relative="1" as="geometry"/>
                </mxCell>
                <mxCell id="60" style="edgeStyle=none;html=1;" parent="1" source="20" target="2" edge="1">
                    <mxGeometry relative="1" as="geometry"/>
                </mxCell>
                <object label="&lt;b&gt;&lt;font face=&quot;Garamond&quot;&gt;Root&lt;/font&gt;&lt;/b&gt;" Client="Client&#xa;" id="20">
                    <mxCell style="whiteSpace=wrap;html=1;sketch=1;curveFitting=1;jiggle=2;rounded=1;" parent="1" vertex="1">
                        <mxGeometry x="40" y="690" width="90" height="45" as="geometry"/>
                    </mxCell>
                </object>
                <mxCell id="23" value="Body" style="whiteSpace=wrap;html=1;" parent="1" vertex="1">
                    <mxGeometry x="650" y="620" width="80" height="40" as="geometry"/>
                </mxCell>
                <mxCell id="25" value="Body" style="whiteSpace=wrap;html=1;sketch=1;curveFitting=1;jiggle=2;rounded=1;" parent="1" vertex="1">
                    <mxGeometry x="640" y="740" width="120" height="60" as="geometry"/>
                </mxCell>
                <mxCell id="32" value="" style="edgeStyle=none;html=1;" parent="1" source="27" target="31" edge="1">
                    <mxGeometry relative="1" as="geometry"/>
                </mxCell>
                <mxCell id="33" value="" style="edgeStyle=none;html=1;" parent="1" source="27" target="31" edge="1">
                    <mxGeometry relative="1" as="geometry"/>
                </mxCell>
                <mxCell id="36" style="edgeStyle=none;html=1;entryX=0;entryY=0.5;entryDx=0;entryDy=0;" parent="1" source="27" target="34" edge="1">
                    <mxGeometry relative="1" as="geometry"/>
                </mxCell>
                <object label="Options" Client="Client&#xa;" id="27">
                    <mxCell style="whiteSpace=wrap;html=1;sketch=1;curveFitting=1;jiggle=2;rounded=1;" parent="1" vertex="1">
                        <mxGeometry x="600" y="1020" width="100" height="50" as="geometry"/>
                    </mxCell>
                </object>
                <mxCell id="38" style="edgeStyle=none;html=1;entryX=0;entryY=0.5;entryDx=0;entryDy=0;" parent="1" source="29" target="37" edge="1">
                    <mxGeometry relative="1" as="geometry"/>
                </mxCell>
                <mxCell id="29" value="Details" style="whiteSpace=wrap;html=1;sketch=1;curveFitting=1;jiggle=2;rounded=1;fillColor=#fad7ac;strokeColor=#b46504;" parent="1" vertex="1">
                    <mxGeometry x="640" y="880" width="130" height="50" as="geometry"/>
                </mxCell>
                <mxCell id="31" value="Sign Up" style="whiteSpace=wrap;html=1;sketch=1;curveFitting=1;jiggle=2;rounded=1;" parent="1" vertex="1">
                    <mxGeometry x="770" y="980" width="120" height="60" as="geometry"/>
                </mxCell>
                <mxCell id="34" value="Sign In" style="whiteSpace=wrap;html=1;sketch=1;curveFitting=1;jiggle=2;rounded=1;" parent="1" vertex="1">
                    <mxGeometry x="775" y="1070" width="120" height="60" as="geometry"/>
                </mxCell>
                <mxCell id="40" style="edgeStyle=none;html=1;entryX=0;entryY=0.5;entryDx=0;entryDy=0;" parent="1" source="37" target="39" edge="1">
                    <mxGeometry relative="1" as="geometry"/>
                </mxCell>
                <mxCell id="42" style="edgeStyle=none;html=1;entryX=0;entryY=0.5;entryDx=0;entryDy=0;" parent="1" source="37" target="41" edge="1">
                    <mxGeometry relative="1" as="geometry"/>
                </mxCell>
                <mxCell id="37" value="Body" style="whiteSpace=wrap;html=1;sketch=1;curveFitting=1;jiggle=2;rounded=1;" parent="1" vertex="1">
                    <mxGeometry x="810" y="880" width="130" height="50" as="geometry"/>
                </mxCell>
                <mxCell id="39" value="Edit Profile" style="whiteSpace=wrap;html=1;sketch=1;curveFitting=1;jiggle=2;rounded=1;" parent="1" vertex="1">
                    <mxGeometry x="980" y="830" width="130" height="50" as="geometry"/>
                </mxCell>
                <mxCell id="46" style="edgeStyle=none;html=1;" parent="1" source="41" target="45" edge="1">
                    <mxGeometry relative="1" as="geometry"/>
                </mxCell>
                <mxCell id="51" style="edgeStyle=none;html=1;entryX=0;entryY=0.5;entryDx=0;entryDy=0;" parent="1" source="41" target="50" edge="1">
                    <mxGeometry relative="1" as="geometry"/>
                </mxCell>
                <mxCell id="52" style="edgeStyle=none;html=1;" parent="1" source="41" target="49" edge="1">
                    <mxGeometry relative="1" as="geometry"/>
                </mxCell>
                <mxCell id="53" style="edgeStyle=none;html=1;entryX=0;entryY=0.5;entryDx=0;entryDy=0;" parent="1" source="41" target="47" edge="1">
                    <mxGeometry relative="1" as="geometry"/>
                </mxCell>
                <mxCell id="54" style="edgeStyle=none;html=1;entryX=0;entryY=0.5;entryDx=0;entryDy=0;" parent="1" source="41" target="48" edge="1">
                    <mxGeometry relative="1" as="geometry"/>
                </mxCell>
                <mxCell id="41" value="Settings" style="whiteSpace=wrap;html=1;sketch=1;curveFitting=1;jiggle=2;rounded=1;" parent="1" vertex="1">
                    <mxGeometry x="990" y="980" width="130" height="50" as="geometry"/>
                </mxCell>
                <mxCell id="45" value="Change Language" style="whiteSpace=wrap;html=1;sketch=1;curveFitting=1;jiggle=2;rounded=1;" parent="1" vertex="1">
                    <mxGeometry x="1310" y="1070" width="130" height="50" as="geometry"/>
                </mxCell>
                <mxCell id="47" value="Earn With SbziMndi" style="whiteSpace=wrap;html=1;sketch=1;curveFitting=1;jiggle=2;rounded=1;" parent="1" vertex="1">
                    <mxGeometry x="1310" y="1160" width="130" height="50" as="geometry"/>
                </mxCell>
                <mxCell id="48" value="Notification" style="whiteSpace=wrap;html=1;sketch=1;curveFitting=1;jiggle=2;rounded=1;" parent="1" vertex="1">
                    <mxGeometry x="1310" y="980" width="130" height="50" as="geometry"/>
                </mxCell>
                <mxCell id="49" value="Donate to SbziMndi" style="whiteSpace=wrap;html=1;sketch=1;curveFitting=1;jiggle=2;rounded=1;" parent="1" vertex="1">
                    <mxGeometry x="1310" y="1260" width="130" height="50" as="geometry"/>
                </mxCell>
                <mxCell id="50" value="Privacy Policy" style="whiteSpace=wrap;html=1;sketch=1;curveFitting=1;jiggle=2;rounded=1;" parent="1" vertex="1">
                    <mxGeometry x="1300" y="1360" width="130" height="50" as="geometry"/>
                </mxCell>
                <mxCell id="65" value="" style="edgeStyle=none;html=1;" edge="1" parent="1" source="62" target="64">
                    <mxGeometry relative="1" as="geometry"/>
                </mxCell>
                <mxCell id="62" value="Blocks" style="whiteSpace=wrap;html=1;" vertex="1" parent="1">
                    <mxGeometry x="790" y="470" width="80" height="40" as="geometry"/>
                </mxCell>
                <mxCell id="68" value="" style="edgeStyle=none;html=1;" edge="1" parent="1" source="64" target="67">
                    <mxGeometry relative="1" as="geometry"/>
                </mxCell>
                <mxCell id="70" value="" style="edgeStyle=none;html=1;" edge="1" parent="1" source="64" target="69">
                    <mxGeometry relative="1" as="geometry"/>
                </mxCell>
                <mxCell id="64" value="ProductPage" style="whiteSpace=wrap;html=1;" vertex="1" parent="1">
                    <mxGeometry x="950" y="470" width="80" height="40" as="geometry"/>
                </mxCell>
                <mxCell id="67" value="Product" style="whiteSpace=wrap;html=1;" vertex="1" parent="1">
                    <mxGeometry x="1100" y="470" width="90" height="40" as="geometry"/>
                </mxCell>
                <mxCell id="69" value="Checkout Page" style="whiteSpace=wrap;html=1;" vertex="1" parent="1">
                    <mxGeometry x="1100" y="540" width="95" height="40" as="geometry"/>
                </mxCell>
            </root>
        </mxGraphModel>
    </diagram>
</mxfile>